<svg xmlns="http://www.w3.org/2000/svg" width="294.103" height="73" viewBox="0 0 294.103 73">
  <g id="Layer_2" data-name="Layer 2" transform="translate(-0.001 0.009)">
    <g id="Layer_2-2" data-name="Layer 2" transform="translate(0.001 -0.009)">
      <path id="Trazado_3" data-name="Trazado 3" d="M4.215,47.306a19.152,19.152,0,0,0,.3,2.891,1.024,1.024,0,0,1-1.325,1.144,3.9,3.9,0,0,1-1.767-.763,3.333,3.333,0,0,1-.964-1.686C.06,47.467-.8,43.151,1.846,43.211a2.008,2.008,0,0,1,1.486.723,6.023,6.023,0,0,1,.883,3.312M76.968,29.178S74.4,8.039,56.21,2.217A37.621,37.621,0,0,0,34.589,1.053,48.683,48.683,0,0,0,12.045,10.87,31.5,31.5,0,0,0,1.766,27.191a27.624,27.624,0,0,0-.3,11.483c.241,1.445,2.289,2.79,2.309.422C4.014,12.837,25.555,8.039,26.318,7.818l.8-.181a3.071,3.071,0,0,1,1.044,0,.28.28,0,0,1,0,.542c-1.726.823-8.452,3.112-12.045,6.3a28.949,28.949,0,0,0-10.1,17.446,78.394,78.394,0,0,0,.221,15.2,24.633,24.633,0,0,0,4.115,9.516,38.023,38.023,0,0,0,14.515,10.7,51.128,51.128,0,0,0,6.705,1.425.422.422,0,1,1,0,.843c-2.369.381-8.03-.923-12.808-3.252A28.266,28.266,0,0,1,10.4,59.613c-2.63-2.831-4.015-5.8-5-5.6-1.606.321-.241,3.754.462,5.079a28.105,28.105,0,0,0,9.7,9.8A34.128,34.128,0,0,0,34.248,72.9C49.1,71.638,58.338,64.491,62.354,58.85a32.9,32.9,0,0,0,7.568-20.316c0-1.606.12-12.788-3.553-18.63-.823-1.325-3.333-6.785-12.768-11.423a18.409,18.409,0,0,0-6.585-2.008c-1.1,0-3.353-.12-3.152-1.445.161-.923,5.661.3,6.223.462a42.158,42.158,0,0,1,12.567,6.826c10.921,8.351,9.817,26.1,9.817,26.1-.462,18.831-11.443,26.8-19.333,31.518-.161,0-.723.8-.542,1.084s.562.261.944.221c3.031-.3,6.023-2.57,8.512-4.537,13.009-10.238,13.671-18.228,14.414-21.24a57.5,57.5,0,0,0,.6-16.06" transform="translate(-0.001 0.009)" fill="#fff" fill-rule="evenodd"/>
      <path id="Trazado_4" data-name="Trazado 4" d="M50.45,21.144l-.984-.381c-.984-.4-3.433-1.044-5.4-1.566l-2.509-.662a25.3,25.3,0,0,1-.923-3.393c-.12-.522-.2-.923-.261-1.1-.181-.622-.4-.964-1-.9h0l-7.89,2.008-6.725,1.747c-.261,0-.422.181-2.509,3.453-.622.984-1.385,2.208-1.526,2.329a8.793,8.793,0,0,1-.984.482c-1.325.622-3.774,1.767-5.9,2.971A47.157,47.157,0,0,0,6.666,30.94a.683.683,0,0,0,0,.683.944.944,0,0,0,.944.321H7.89c.462-.12,14.675-2.971,22.826-4.316,2.008-.341,4.6-.662,7.649-.984,7.468-.783,14.976-1.225,15.418-1.164A1.425,1.425,0,0,0,54.967,25a1.486,1.486,0,0,0,.381-1.024c0-.723-1.606-1.465-4.9-2.75" transform="translate(6.623 13.243)" fill="#ca2032" fill-rule="evenodd"/>
      <path id="Trazado_5" data-name="Trazado 5" d="M139.65,24.48h.843l.8,2.248h0l.783-2.248h.843v2.931h-.542V24.962h0l-.863,2.449H141.1l-.843-2.449h0v2.449h-.562Zm-2.73,0h2.309v.482h-.883v2.449H137.8V24.962h-.883Z" transform="translate(137.951 24.682)" fill="#fff" fill-rule="evenodd"/>
      <path id="Trazado_6" data-name="Trazado 6" d="M58.144,31.637c1.265-1.385,3.473-1.124,5.42-1.666,3.413-.944,8.693-3.413,8.552-7.749-.12-3.774-3.774-6.023-8.03-6.645C61.075,25.895,56.056,35.069,51.2,44.043c-1.466,2.71-2.891,6.725-6.685,7.026-1.867-1.606-1.225-4.015-.944-5.621a60.045,60.045,0,0,1,5.1-14.354,64.783,64.783,0,0,1,10.56-15.8,6.384,6.384,0,0,1-4.156-.522c-1.144-5,4.015-6.023,7.709-6.284C71.113,7.968,79.5,12.705,79.3,21.3c-.181,6.966-7.649,11.523-14.715,12.045-2.008.161-5.059.4-6.444-1.767m122.319-6.163c1.265-2.489,2.008-4.718,3.473-7.789.6-1.345,4.015-7.508.763-8.291h-.241c-5.42,1.526-9.315,11.945-12.688,16.261-4.136-.1-9.174-.442-8.974,2.61.181,2.489,3.814,2.991,5.9,4.2-.763,2.429-5.4,12.146-1.445,14.635s6.3-3.473,7.247-6.023a57.694,57.694,0,0,1,3.413-8.512c3.252-.241,6.866-1.365,9.536-1.405-.7,2.851-2.289,6.826-.582,10.5,3.031,2.008,5.3-.181,6.344-2.148,1.686-3.132,2.008-8.693,3.192-11.2,2.008-1.184,5.019-1.325,5.481-3.875-1.1-1.1-2.851,0-4.356,0a60.233,60.233,0,0,1,2.148-6.324c.7-2.008,2.008-4.657.4-6.826-3.393.562-4.818,3.654-6.264,6.023s-2.851,5.5-4.417,8.03c-3.011,0-5.7.341-8.934.181M96.288,10.2c-3.694-1.2-9.757,1.686-11.724,4.557-1.265,1.827-1.686,5.44.743,6.023,3.051.843,5.38-2.67,6.665-4.015,2.008-2.168,3.734-3.674,4.316-6.565m141.371,5.2c-2.991-.783-4.236,1.506-6.023,3.614-1.425,1.706-2.289,3.413-3.092,3.634-2.008.6-5.119-1.265-6.826-.763a2.289,2.289,0,0,0-1.546,2.008c0,2.61,3.112,3.011,5.661,4.015a45.474,45.474,0,0,0-3.393,8.773c-.743,3.051-1.546,7.528.161,10.74,2.008-.341,2.57-2.811,3.252-4.376a117.08,117.08,0,0,1,7.629-15.719,78.978,78.978,0,0,0,13.33-2.57c1.345-.341,3.252-.2,3.734-1.686-.984-1.164-2.871-.743-4.417-.763-3.674,0-7.649.2-10.138.161.863-1.867,3.393-4.015,1.586-7.067M138.526,32.982c.9-3.674,4.2-5.079,8.03-6.023,1.024,0-.442,1.1-.341,1.706a4.838,4.838,0,0,0-.542,2.208c-2.349.723-4.015,2.128-7.087,2.148m-19.132,3.232c2.208-2.008,4.015-4.015,6.484-6.3,1.686-1.606,6.243-4.356,4.939-7.769-.723-1.867-4.015-2.248-6.243-2.248-3.272,0-7.448,1-10.8.883-1.184,0-2.248-1-3.172-.261-3.051,6.4,6.6,6.023,11.343,5.461-3.433,3.714-9.476,6.023-12.467,10.158a4.979,4.979,0,0,0-1.064,4.637c1.265,1.024,2.73.321,4.136.261,6.344-.181,13.611,1.907,18.329-.341a22.083,22.083,0,0,0,2.509-2.008c5.782,1.847,9.9-1.445,13.27-3.333,2.008,2.75,10.379,2.931,11.062-.642-1.325-2.248-4.939-.984-5.6-3.473s3.694-6.243.944-9.014c-1.064-.743-2.228.4-2.891,0-8.291-1.044-16.944,3.473-19.031,9.616a10.037,10.037,0,0,0,.161,5.139c-3.513,1.445-8.03-.3-11.9-.823M85.748,23.305a1.466,1.466,0,0,0-2.128.462C80.207,27.9,72.478,34.307,73.181,41.032c.261,2.409,1.626,5.461,4.718,4.437.923-.8.542-1.887.964-2.931,2.489-6.023,9.636-10.3,6.886-19.232m22.886,1.867c-2.79-.984-7.508-.341-11.664-.562-3.714-.2-8.552-1.566-8.311,1.646.281,3.794,7.87,3.393,11.844,3.011-2.79,2.59-6.023,5.119-9.275,7.749-2.77,2.309-7.789,5.039-6.4,10.2,3.092,1.767,6.765,0,10.861-.161,7.709-.281,14.294,2.008,21.621,1.385,2.871-.241,7.368-1.2,7.147-4.336-1.626-.964-3.011,0-4.577.2-7.528.8-14.635-3.413-23.207-2.851,2.208-2.309,5.119-4.6,7.649-7.026s5.721-4.979,4.316-9.255M205,38.844c.984-2.871,2.208-9.516-1.827-10.52a5.24,5.24,0,0,0-4.276.944c0,1.506,1.666,1.184,1.666,2.71-1.024,3.051-5.36,8.773-1.646,12.186,3.333,3.072,8.793-.622,10.479-1.867,1.265-.964,2.369-2.248,3.433-2.429.381,4.015,1.887,6.625,5.42,7.127,1.044-1.144.141-2.449.161-3.915a36.8,36.8,0,0,1,1.325-7.307c.542-2.409,2.008-5.079.12-7.328-2.008-.462-2.991,1.3-3.915,2.409A24.091,24.091,0,0,1,205,38.884" transform="translate(43.556 8.532)" fill="#fff" fill-rule="evenodd"/>
    </g>
  </g>
</svg>
